<svg width="171" height="57" viewBox="0 0 171 57" fill="none" xmlns="http://www.w3.org/2000/svg">
<g filter="url(#filter0_dd_2_110)">
<path d="M32.332 11.0051C29.513 11.0804 23.519 12.4482 22.2783 13.4194C21.8221 13.7819 21.6032 14.2538 21.74 14.6505C21.9681 14.9993 31.438 26.3253 31.438 26.3253C32.8429 28.0557 33.9925 27.7821 34.3665 27.6932C34.7406 27.6043 35.8718 27.3444 35.7441 25.3199C35.6073 22.9603 34.7132 12.4551 34.6037 11.9626C34.4486 11.5181 33.9468 11.1761 33.29 11.0462C33.0345 11.0051 32.7334 10.9915 32.332 11.0051ZM46.6372 21.3531C46.3544 21.3668 46.0989 21.4146 45.8526 21.5378C45.5515 21.6882 45.3235 21.9071 41.1268 26.2774C41.1268 26.2774 39.2383 28.2677 39.2109 28.2882C38.7091 28.7465 38.7274 29.403 39.2109 29.9707C39.7218 30.5657 40.5247 30.8667 41.3093 30.7025C41.3093 30.7025 41.3184 30.7367 41.3093 30.7504C41.6924 30.641 42.3858 30.4768 43.6448 30.2511C51.4816 28.8012 51.7736 28.7601 52.0837 28.6028C52.549 28.3634 52.7771 27.9189 52.7406 27.4196C52.7406 27.4059 52.7406 27.3923 52.7406 27.3717C52.5399 25.9081 49.1917 22.1123 47.5313 21.4899C47.2393 21.3805 46.9109 21.3463 46.6372 21.3531ZM20.3077 27.235C19.7329 27.2213 19.222 27.4538 18.8662 27.8779C18.1272 28.7943 17.8353 31.6258 18.0907 33.534C18.182 34.1632 18.2914 34.7241 18.5104 35.0318C18.8115 35.4696 19.3132 35.7021 19.888 35.7226C20.2529 35.7294 20.5357 35.6747 27.4238 33.9854C27.4238 33.9854 30.4618 33.2604 30.48 33.2536C31.2372 33.11 31.739 32.5697 31.7938 31.8857C31.8394 31.1881 31.3741 30.5589 30.5986 30.34L28.4455 29.6561C21.0284 27.3239 20.6817 27.2418 20.3077 27.235ZM41.4279 33.664C40.8531 33.6571 40.2327 33.8623 39.813 34.259C39.2292 34.8061 39.1653 35.5448 39.6306 36.0851L40.8257 37.5898C44.922 42.6577 45.2596 42.9723 45.5515 43.1502C46.0077 43.4237 46.5642 43.4716 47.1663 43.287C48.918 42.7603 52.7041 39.0944 52.9778 37.6787C53.069 37.1862 52.8775 36.769 52.4304 36.4955C52.1385 36.3245 51.9104 36.2629 45.0133 34.5326C45.0133 34.5326 42.0026 33.7734 41.9661 33.7597C41.7837 33.705 41.6194 33.6708 41.4279 33.664ZM33.0528 35.3054C32.6513 35.3738 32.2864 35.5653 32.031 35.8115L30.5348 37.1794C25.3345 41.8233 25.1521 42.008 25.0335 42.2816C24.9514 42.4457 24.8875 42.6577 24.9149 42.8287C24.9422 43.0818 25.0791 43.287 25.3254 43.5127C26.5297 44.6069 32.3412 46.221 34.184 45.9748C34.8227 45.8859 35.2423 45.6602 35.443 45.2498C35.5616 44.9763 35.5981 44.7985 35.6255 39.2722C35.6255 39.2722 35.6164 36.8374 35.6255 36.8101C35.6711 36.215 35.1967 35.6474 34.3665 35.4012C33.9377 35.2712 33.4542 35.237 33.0528 35.3054Z" fill="#685DFF" fill-opacity="0.4615"/>
<path d="M32.332 11.0051C29.513 11.0804 23.519 12.4482 22.2783 13.4194C21.8221 13.7819 21.6032 14.2538 21.74 14.6505C21.9681 14.9993 31.438 26.3253 31.438 26.3253C32.8429 28.0557 33.9925 27.7821 34.3665 27.6932C34.7406 27.6043 35.8718 27.3444 35.7441 25.3199C35.6073 22.9603 34.7132 12.4551 34.6037 11.9626C34.4486 11.5181 33.9468 11.1761 33.29 11.0462C33.0345 11.0051 32.7334 10.9915 32.332 11.0051ZM46.6372 21.3531C46.3544 21.3668 46.0989 21.4146 45.8526 21.5378C45.5515 21.6882 45.3235 21.9071 41.1268 26.2774C41.1268 26.2774 39.2383 28.2677 39.2109 28.2882C38.7091 28.7465 38.7274 29.403 39.2109 29.9707C39.7218 30.5657 40.5247 30.8667 41.3093 30.7025C41.3093 30.7025 41.3184 30.7367 41.3093 30.7504C41.6924 30.641 42.3858 30.4768 43.6448 30.2511C51.4816 28.8012 51.7736 28.7601 52.0837 28.6028C52.549 28.3634 52.7771 27.9189 52.7406 27.4196C52.7406 27.4059 52.7406 27.3923 52.7406 27.3717C52.5399 25.9081 49.1917 22.1123 47.5313 21.4899C47.2393 21.3805 46.9109 21.3463 46.6372 21.3531ZM20.3077 27.235C19.7329 27.2213 19.222 27.4538 18.8662 27.8779C18.1272 28.7943 17.8353 31.6258 18.0907 33.534C18.182 34.1632 18.2914 34.7241 18.5104 35.0318C18.8115 35.4696 19.3132 35.7021 19.888 35.7226C20.2529 35.7294 20.5357 35.6747 27.4238 33.9854C27.4238 33.9854 30.4618 33.2604 30.48 33.2536C31.2372 33.11 31.739 32.5697 31.7938 31.8857C31.8394 31.1881 31.3741 30.5589 30.5986 30.34L28.4455 29.6561C21.0284 27.3239 20.6817 27.2418 20.3077 27.235ZM41.4279 33.664C40.8531 33.6571 40.2327 33.8623 39.813 34.259C39.2292 34.8061 39.1653 35.5448 39.6306 36.0851L40.8257 37.5898C44.922 42.6577 45.2596 42.9723 45.5515 43.1502C46.0077 43.4237 46.5642 43.4716 47.1663 43.287C48.918 42.7603 52.7041 39.0944 52.9778 37.6787C53.069 37.1862 52.8775 36.769 52.4304 36.4955C52.1385 36.3245 51.9104 36.2629 45.0133 34.5326C45.0133 34.5326 42.0026 33.7734 41.9661 33.7597C41.7837 33.705 41.6194 33.6708 41.4279 33.664ZM33.0528 35.3054C32.6513 35.3738 32.2864 35.5653 32.031 35.8115L30.5348 37.1794C25.3345 41.8233 25.1521 42.008 25.0335 42.2816C24.9514 42.4457 24.8875 42.6577 24.9149 42.8287C24.9422 43.0818 25.0791 43.287 25.3254 43.5127C26.5297 44.6069 32.3412 46.221 34.184 45.9748C34.8227 45.8859 35.2423 45.6602 35.443 45.2498C35.5616 44.9763 35.5981 44.7985 35.6255 39.2722C35.6255 39.2722 35.6164 36.8374 35.6255 36.8101C35.6711 36.215 35.1967 35.6474 34.3665 35.4012C33.9377 35.2712 33.4542 35.237 33.0528 35.3054Z" fill="url(#paint0_linear_2_110)"/>
<path d="M64.808 26L64.584 29.808C64.6907 29.744 65.1173 29.7013 65.864 29.68C66.6107 29.6373 67.1013 29.6373 67.336 29.68L68.52 30.224C68.8187 30.416 69.1707 30.7467 69.576 31.216C69.832 31.7707 69.5227 32.1973 68.648 32.496C67.816 32.624 67.2827 32.688 67.048 32.688L64.52 32.816V34.288C64.648 36.912 64.712 38.4373 64.712 38.864C64.8187 39.504 64.872 39.888 64.872 40.016V40.72C64.872 41.1253 64.8187 41.3813 64.712 41.488C64.456 41.808 64.296 41.9787 64.232 42C63.3573 42.3413 62.4293 42.128 61.448 41.36L60.936 40.688C60.936 40.6027 60.872 40.2827 60.744 39.728C60.7653 39.664 60.68 39.312 60.488 38.672C60.488 38.544 60.5093 38.384 60.552 38.192C60.616 38 60.648 37.7867 60.648 37.552C60.648 37.3173 60.5947 37.072 60.488 36.816C60.488 36.5387 60.4667 36.2933 60.424 36.08V35.76C60.4667 35.5253 60.488 35.28 60.488 35.024C60.5093 34.7467 60.5413 34.48 60.584 34.224C60.648 33.9467 60.6587 33.6907 60.616 33.456V33.36C60.3173 33.2107 60.0933 33.1467 59.944 33.168C59.816 33.1893 59.6667 33.1253 59.496 32.976C59.3467 32.8053 59.2613 32.6453 59.24 32.496C59.2187 32.3467 59.4427 32.048 59.912 31.6C59.9547 31.5147 60.2107 31.3653 60.68 31.152V30.512L60.84 28.72C60.776 28.144 60.776 27.7067 60.84 27.408C60.904 27.1093 60.9147 26.864 60.872 26.672L61.064 25.968C59.9973 26.16 59.2293 26.2027 58.76 26.096C58.3547 25.904 58.1413 25.5947 58.12 25.168C58.0987 25.1467 58.152 24.8373 58.28 24.24C58.216 23.9413 58.472 23.568 59.048 23.12C59.5173 22.9067 59.9653 22.7573 60.392 22.672C61.2027 22.3947 61.928 22.2133 62.568 22.128C63.8267 21.9147 64.84 21.7333 65.608 21.584L67.112 21.04C67.4533 20.848 67.688 20.7627 67.816 20.784C67.9653 20.8053 68.1787 20.7627 68.456 20.656C68.4987 20.5493 68.744 20.4533 69.192 20.368C70.1093 20.1973 70.6427 20.2933 70.792 20.656C70.984 20.6987 71.24 20.848 71.56 21.104C71.624 21.1253 71.8693 21.5413 72.296 22.352C72.36 22.5227 72.328 22.704 72.2 22.896C72.072 23.0667 71.8693 23.1627 71.592 23.184L70.728 23.504C70.472 23.5253 70.1093 23.6427 69.64 23.856C68.7653 24.0907 68.2747 24.208 68.168 24.208C68.0613 24.208 67.9547 24.2187 67.848 24.24C67.528 24.304 67.1867 24.3893 66.824 24.496C66.4613 24.6027 66.152 24.656 65.896 24.656C65.2987 24.784 64.968 24.9333 64.904 25.104C64.8827 25.1467 64.872 25.2107 64.872 25.296L64.808 25.68V26ZM74.5273 24.88L74.7513 22.992L74.7833 22C74.7833 21.7227 74.8366 21.5093 74.9433 21.36L75.2633 20.912C75.8393 20.464 76.2126 20.208 76.3833 20.144C76.5539 20.08 76.7993 20.0907 77.1193 20.176C77.4606 20.24 77.6633 20.304 77.7273 20.368L78.0793 20.656C78.2713 20.7627 78.3673 20.9333 78.3673 21.168C78.4739 21.296 78.5059 21.392 78.4633 21.456C78.3353 21.6053 78.1219 22.864 77.8233 25.232L77.5673 29.584L77.4073 30.448C77.4073 30.7253 77.4179 30.8853 77.4393 30.928V31.504C77.3966 31.9307 77.3539 32.1973 77.3113 32.304C77.3113 32.4107 77.2899 32.528 77.2473 32.656C77.2899 32.6987 77.3113 32.8693 77.3113 33.168C77.3113 33.4453 77.2793 33.616 77.2153 33.68C77.1726 34.0213 77.1513 34.352 77.1513 34.672C77.1513 34.9707 77.1726 35.2907 77.2153 35.632C77.2793 35.952 77.3006 36.272 77.2793 36.592L77.4073 37.808V38.288C77.4499 38.672 77.4713 38.9813 77.4713 39.216L77.6313 40.88L77.7593 41.744C77.8233 42.1067 77.7913 42.4587 77.6633 42.8C77.5566 43.1413 77.3859 43.3547 77.1513 43.44C76.4899 43.7173 75.7646 43.536 74.9753 42.896H74.7193C74.5699 42.7253 74.4526 42.4907 74.3673 42.192C74.1966 42.1067 74.1219 41.9573 74.1432 41.744C74.1646 41.5307 74.1219 41.3387 74.0153 41.168C73.9086 40.9973 73.8553 40.848 73.8553 40.72C73.8553 40.4427 73.8339 40.1973 73.7913 39.984L73.8233 39.728C73.7593 39.664 73.7273 39.568 73.7273 39.44L73.6633 38.864V38.608C73.6633 38.4373 73.6526 38.32 73.6313 38.256C73.6313 38.192 73.6633 38.0853 73.7273 37.936C73.6633 37.8507 73.6526 37.5413 73.6953 37.008C73.8233 35.3653 73.8873 34.2347 73.8873 33.616L73.9193 32.848V31.92C73.9406 31.408 73.9513 30.7573 73.9513 29.968C73.9726 29.1787 74.0153 28.752 74.0793 28.688L74.0473 28.4C74.0473 27.888 74.1219 27.1947 74.2713 26.32C74.4419 25.424 74.5273 24.944 74.5273 24.88ZM82.9188 21.936C84.3481 21.936 85.3508 22.224 85.9268 22.8C85.9268 23.1627 85.6814 23.8987 85.1908 25.008C85.1054 25.3707 84.9668 25.6587 84.7748 25.872L84.3588 26.288C84.2521 26.352 84.1454 26.384 84.0388 26.384C83.2708 26.576 82.6734 26.4267 82.2468 25.936C82.1614 25.808 82.0548 25.712 81.9268 25.648C81.8201 25.584 81.7348 25.392 81.6708 25.072C81.4788 24.7947 81.3828 24.5813 81.3828 24.432C81.3401 23.1093 81.8201 22.2773 82.8228 21.936H82.9188ZM82.6628 29.488C82.8761 29.3813 83.3774 29.488 84.1668 29.808C84.2521 29.8933 84.3801 29.9787 84.5508 30.064L85.0628 30.48C85.1481 30.5653 85.1908 30.704 85.1908 30.896V33.712C85.1908 34.1387 85.1694 34.5227 85.1268 34.864V35.056C85.0628 35.9307 85.1161 37.904 85.2868 40.976C85.3508 41.5733 85.2121 41.936 84.8708 42.064C84.5081 42.064 84.2734 42.0107 84.1668 41.904C84.0814 41.8613 84.0068 41.84 83.9427 41.84H83.7188L83.5268 41.904C83.4628 41.904 83.3454 41.8613 83.1748 41.776C83.0041 41.6693 82.8868 41.5627 82.8228 41.456C82.7801 41.3493 82.6948 41.2853 82.5668 41.264C82.3321 41.1787 82.2041 41.0187 82.1828 40.784C81.8841 40.208 81.7241 39.8667 81.7028 39.76C81.7028 39.6533 81.6708 39.536 81.6068 39.408L81.4468 36.624C81.4468 36.304 81.4681 36.0587 81.5108 35.888V35.12C81.5321 34.8853 81.5534 34.4587 81.5748 33.84C81.5961 33.2 81.6281 32.688 81.6708 32.304C81.6281 31.7493 81.6068 31.376 81.6068 31.184C81.6068 30.992 81.6174 30.8533 81.6388 30.768C81.4041 30.5333 81.4148 30.2133 81.6708 29.808C81.9481 29.5947 82.2148 29.488 82.4708 29.488H82.6628ZM91.6408 28.496C92.3661 27.8987 93.4861 27.8133 95.0008 28.24C95.3634 28.4107 95.6941 28.6667 95.9928 29.008C96.1421 29.2427 96.2594 29.616 96.3448 30.128C96.4301 30.64 96.4408 31.1733 96.3767 31.728C96.3341 32.2827 96.1848 32.7627 95.9288 33.168C95.6941 33.552 95.2674 33.808 94.6488 33.936C94.2008 33.936 93.9234 33.7973 93.8168 33.52C93.6248 33.1147 93.5821 32.7627 93.6888 32.464C93.7528 32.016 93.6888 31.4827 93.4968 30.864C93.4541 30.8213 93.3474 30.8 93.1768 30.8L92.7928 31.504C92.7501 31.5893 92.5688 32.2293 92.2488 33.424C91.9501 34.5973 91.7901 35.344 91.7688 35.664C91.7474 35.9627 91.7154 36.24 91.6727 36.496C91.6727 37.968 91.7794 39.0027 91.9928 39.6C92.2061 40.176 92.4194 40.528 92.6328 40.656C92.6968 40.72 92.8781 40.752 93.1768 40.752C93.4968 40.752 93.8381 40.6667 94.2008 40.496C94.5208 40.2613 94.8194 39.952 95.0968 39.568C95.0968 39.4827 95.2781 39.3547 95.6408 39.184L95.8968 38.928C96.6861 38.8427 97.1021 39.184 97.1448 39.952C97.1874 40.1653 97.1234 40.4 96.9528 40.656C96.8461 40.912 96.7714 41.0507 96.7288 41.072C96.7288 41.1573 96.4408 41.648 95.8648 42.544C95.6514 42.544 95.5021 42.5867 95.4167 42.672C95.0114 42.992 94.5208 43.1093 93.9448 43.024C93.8808 43.0027 93.8168 42.992 93.7528 42.992C93.6888 42.992 93.3581 42.9387 92.7608 42.832H92.3128C91.7581 42.704 91.3848 42.5653 91.1927 42.416C90.9368 42.352 90.6381 42.2133 90.2968 42L89.8488 41.552C89.7848 41.5307 89.6461 41.4347 89.4328 41.264C89.2408 41.072 89.1234 40.9333 89.0807 40.848C89.0594 40.7413 88.9848 40.592 88.8568 40.4C88.7501 40.1867 88.6968 39.9947 88.6968 39.824L88.5368 39.184C88.5368 38.928 88.5048 38.768 88.4408 38.704C88.4408 38.6613 88.4088 38.544 88.3448 38.352C88.3448 38.1173 88.3234 37.7973 88.2808 37.392C88.2168 36.7307 88.2701 36.3147 88.4408 36.144C88.4621 36.144 88.4408 35.952 88.3768 35.568V34.416C88.3768 34.0747 88.4728 33.616 88.6648 33.04C88.6861 32.7627 88.8141 32.3893 89.0488 31.92L89.2088 31.504C89.2514 31.1627 89.4328 30.8107 89.7528 30.448L90.2328 29.872L90.6168 29.232C90.8728 28.8907 91.2141 28.6453 91.6408 28.496ZM103.662 21.84C104.195 21.84 104.472 22.352 104.494 23.376C104.558 24.8693 104.504 26.3733 104.334 27.888C104.184 29.4027 104.056 30.9387 103.95 32.496L103.63 34.16L103.662 34.256C104.195 34.0213 104.718 33.584 105.23 32.944L105.294 32.912C105.592 32.6133 105.88 32.3893 106.158 32.24C106.222 32.0907 106.488 31.824 106.958 31.44C107.022 31.44 107.16 31.312 107.374 31.056C107.886 30.7787 108.195 30.608 108.302 30.544C108.408 30.4587 108.515 30.3947 108.622 30.352C108.728 30.288 108.952 30.2347 109.294 30.192C109.315 30.2133 109.411 30.256 109.582 30.32C109.752 30.384 109.87 30.448 109.934 30.512C110.339 30.896 110.254 31.4293 109.678 32.112C109.016 33.0293 108.334 33.7867 107.63 34.384C106.926 34.9813 106.414 35.3653 106.094 35.536C106.222 35.8133 106.435 36.144 106.734 36.528C106.99 37.2107 107.246 37.6693 107.502 37.904C107.907 38.5653 108.472 39.2373 109.198 39.92C109.24 39.9413 109.304 40.0267 109.39 40.176C109.496 40.3253 109.731 40.6347 110.094 41.104C110.414 41.3173 110.574 41.6053 110.574 41.968C110.552 42.1173 110.414 42.2133 110.158 42.256C109.923 42.32 109.656 42.32 109.358 42.256C109.251 42.2987 108.952 42.2453 108.462 42.096C108.419 42.0533 108.323 42 108.174 41.936C108.088 41.936 107.918 41.8507 107.662 41.68C107.342 41.68 107.139 41.6373 107.054 41.552C106.456 41.3387 106.147 41.1253 106.126 40.912C105.955 40.8693 105.795 40.7307 105.646 40.496C105.539 40.4107 105.379 40.144 105.166 39.696C105.08 39.6747 104.952 39.5573 104.782 39.344C104.611 39.1093 104.515 38.9707 104.494 38.928C104.494 38.864 104.472 38.8 104.43 38.736C104.387 38.6507 104.334 38.5547 104.27 38.448C103.822 37.7013 103.512 37.2427 103.342 37.072L103.278 37.84L103.182 38.32C103.246 38.4907 103.246 38.64 103.182 38.768C103.139 39.024 103.118 39.2267 103.118 39.376L102.99 40.72V41.328C103.011 41.6267 102.968 41.808 102.862 41.872C102.776 42.0853 102.446 42.1493 101.87 42.064L101.23 41.84L101.038 41.712C100.91 41.712 100.75 41.648 100.558 41.52C100.472 41.52 100.28 41.456 99.9818 41.328C99.7044 41.1787 99.5338 41.0293 99.4698 40.88C99.2351 40.3253 99.2031 39.8347 99.3738 39.408C99.3098 39.1947 99.2884 39.0133 99.3098 38.864C99.3951 38.544 99.4164 38.3413 99.3738 38.256C99.3738 38.0853 99.3844 37.9147 99.4058 37.744C99.4271 37.5733 99.4164 37.4133 99.3738 37.264C99.4164 37.0507 99.4698 36.752 99.5338 36.368C99.5124 36.1973 99.5124 36.048 99.5338 35.92C99.5551 35.792 99.5658 35.6853 99.5658 35.6C99.6298 35.4293 99.6618 35.216 99.6618 34.96C99.6618 34.576 99.6938 34.256 99.7578 34C99.8858 33.5733 99.9071 33.232 99.8218 32.976L100.27 30.064C100.632 27.2693 101.027 25.0507 101.454 23.408L101.39 22.704C101.304 22.4693 101.432 22.1813 101.774 21.84C102.115 21.6053 102.371 21.5093 102.542 21.552C102.712 21.4453 103.086 21.5413 103.662 21.84ZM114.742 30.704L114.774 30.416C114.326 30.3733 114.006 30.3413 113.814 30.32C113.643 30.2773 113.355 30.2347 112.95 30.192C112.544 30.1493 112.224 30.0853 111.99 30C111.542 29.8507 111.286 29.4667 111.222 28.848C111.158 28.208 111.36 27.8133 111.83 27.664C112.256 27.5573 112.555 27.504 112.726 27.504C112.896 27.504 113.216 27.4827 113.686 27.44C113.92 27.312 114.24 27.2373 114.646 27.216L115.126 27.088C115.126 27.1093 115.211 27.088 115.382 27.024L115.542 26.352C115.542 26.0107 115.638 25.6693 115.83 25.328C115.83 25.1787 115.968 24.7627 116.246 24.08C116.246 23.9947 116.438 23.376 116.822 22.224C116.907 22.1173 117.227 21.872 117.782 21.488C118.123 21.3173 118.603 21.4347 119.222 21.84C119.563 21.9893 119.798 22.192 119.926 22.448C119.798 22.576 119.734 22.8747 119.734 23.344C119.712 23.4933 119.563 24.2827 119.286 25.712V26.608C119.456 26.6293 119.734 26.6827 120.118 26.768C120.523 26.8533 121.003 26.9493 121.558 27.056C122.624 27.2693 123.296 27.696 123.574 28.336C123.68 28.8053 123.659 29.136 123.51 29.328C123.36 29.52 122.998 29.6587 122.422 29.744C121.952 29.7653 121.334 29.776 120.566 29.776C119.819 29.776 119.264 29.8293 118.902 29.936C118.859 30.32 118.838 30.6187 118.838 30.832L118.806 31.312C118.806 31.4613 118.71 32.2507 118.518 33.68C118.39 33.872 118.283 34.864 118.198 36.656V38.992C118.198 39.376 118.23 39.7387 118.294 40.08C118.315 40.5493 118.368 40.88 118.454 41.072C118.454 41.264 118.507 41.6693 118.614 42.288C118.358 42.9067 117.931 43.216 117.334 43.216C116.758 43.216 116.246 43.0027 115.798 42.576L115.446 42.064C115.382 41.8933 115.328 41.776 115.286 41.712C115.264 41.648 115.243 41.5733 115.222 41.488C115.072 41.0613 114.955 40.7947 114.87 40.688C114.742 40.5173 114.678 40.3893 114.678 40.304C114.678 40.2187 114.678 40.112 114.678 39.984C114.635 39.6213 114.582 39.312 114.518 39.056C114.411 38.9493 114.358 38.5867 114.358 37.968C114.4 36.8373 114.4 36.1867 114.358 36.016C114.422 35.952 114.432 35.5467 114.39 34.8L114.486 34.096C114.486 34.0107 114.528 33.6907 114.614 33.136C114.571 33.0507 114.56 32.8267 114.582 32.464C114.603 32.08 114.635 31.8133 114.678 31.664C114.72 31.408 114.742 31.088 114.742 30.704ZM127.754 28.88C128.074 29.1573 128.245 29.5413 128.266 30.032C128.309 30.5227 128.298 30.864 128.234 31.056C128.191 31.248 128.106 31.9093 127.978 33.04C127.914 33.1893 127.882 33.392 127.882 33.648L127.562 36.496C127.562 37.6267 127.573 38.288 127.594 38.48C127.615 38.672 127.658 38.8213 127.722 38.928C127.743 39.0133 127.839 39.0773 128.01 39.12C128.181 39.1627 128.298 39.12 128.362 38.992C128.362 38.8 128.426 38.6507 128.554 38.544C128.554 38.5013 128.693 38.2027 128.97 37.648C128.97 37.5627 129.002 37.4453 129.066 37.296C129.151 37.1467 129.205 37.0187 129.226 36.912C129.269 36.784 129.301 36.6987 129.322 36.656C129.407 36.592 129.514 36.3573 129.642 35.952C129.642 35.7173 129.77 35.472 130.026 35.216C130.026 35.152 130.133 34.896 130.346 34.448L130.41 34.16C130.794 33.3493 130.975 32.784 130.954 32.464L131.114 30.896L131.434 29.616C131.733 28.9333 132.159 28.5173 132.714 28.368C132.97 28.2613 133.311 28.304 133.738 28.496C134.186 28.688 134.463 28.88 134.57 29.072C134.698 29.2427 134.762 29.4133 134.762 29.584V30.16L134.73 30.512V32.24C134.73 33.52 134.751 34.4907 134.794 35.152C134.922 37.072 135.295 38.7147 135.914 40.08C136.213 40.7627 136.085 41.2853 135.53 41.648C135.21 41.8613 134.837 41.968 134.41 41.968C133.685 41.968 133.183 41.6907 132.906 41.136C132.757 40.9227 132.618 40.6347 132.49 40.272C132.362 39.9093 132.277 39.6747 132.234 39.568C132.106 39.1413 132.021 38.9067 131.978 38.864L131.722 38.256C131.381 39.344 130.794 40.624 129.962 42.096C129.791 42.3733 129.493 42.608 129.066 42.8C128.682 42.7147 128.266 42.5973 127.818 42.448C127.541 42.3413 127.082 42.192 126.442 42C126.015 41.9573 125.77 41.8933 125.706 41.808C125.642 41.7013 125.589 41.6373 125.546 41.616C125.525 41.5733 125.514 41.5413 125.514 41.52C125.45 41.4133 125.343 41.36 125.194 41.36C125.109 41.168 124.981 41.008 124.81 40.88C124.81 40.8587 124.778 40.752 124.714 40.56C124.479 40.4107 124.287 39.9627 124.138 39.216C124.031 39.1093 123.946 38.4267 123.882 37.168C123.839 35.888 123.829 35.088 123.85 34.768C123.893 34.448 123.914 34.1813 123.914 33.968C123.871 33.8827 123.882 33.6907 123.946 33.392C124.01 33.0933 124.031 32.8907 124.01 32.784L124.138 31.44L124.394 30.288C124.394 29.968 124.501 29.6373 124.714 29.296C124.927 28.9547 125.077 28.752 125.162 28.688C125.247 28.5173 125.546 28.3787 126.058 28.272C126.165 28.2933 126.303 28.3147 126.474 28.336C126.645 28.336 126.805 28.3573 126.954 28.4C127.103 28.4213 127.37 28.5813 127.754 28.88ZM138.665 30.352C138.515 29.584 138.675 29.0507 139.145 28.752C139.379 28.624 139.561 28.5707 139.689 28.592C139.838 28.592 140.297 28.7093 141.065 28.944C141.171 28.944 141.246 28.9653 141.289 29.008C141.331 29.008 141.395 29.0293 141.481 29.072C141.673 29.072 141.769 29.1147 141.769 29.2C141.961 29.52 142.078 29.8933 142.121 30.32C142.206 31.1947 142.313 31.9093 142.441 32.464C142.441 32.4427 142.451 32.4107 142.473 32.368C142.878 31.856 143.091 31.5573 143.113 31.472C143.07 31.4293 143.145 31.312 143.337 31.12C143.486 30.6507 143.593 30.3627 143.657 30.256C143.657 30.1493 143.753 29.9787 143.945 29.744C144.094 29.4453 144.222 29.2533 144.329 29.168C144.435 29.0613 144.521 28.976 144.585 28.912C144.905 28.592 145.331 28.4747 145.865 28.56C145.929 28.56 146.046 28.5493 146.217 28.528C146.558 28.4853 146.761 28.5173 146.825 28.624C147.486 28.624 147.742 29.4347 147.593 31.056C147.507 31.7813 147.379 32.1973 147.209 32.304C147.038 32.4107 146.707 32.528 146.217 32.656C145.747 32.784 145.417 32.8907 145.225 32.976C144.478 33.296 143.998 33.7867 143.785 34.448C143.763 34.6827 143.699 34.928 143.593 35.184C143.55 35.5253 143.518 35.728 143.497 35.792C143.497 35.856 143.497 35.984 143.497 36.176C143.497 36.6027 143.433 37.008 143.305 37.392C143.241 37.7973 143.209 38.448 143.209 39.344C143.23 40.2187 143.209 40.8373 143.145 41.2C143.102 41.5627 143.07 41.744 143.049 41.744C143.07 41.8507 143.081 41.9253 143.081 41.968V42.16C143.017 42.3307 142.814 42.5867 142.473 42.928L141.993 42.96C141.502 42.96 141.235 42.928 141.193 42.864C140.979 42.7787 140.819 42.6507 140.713 42.48C140.585 42.4587 140.521 42.3733 140.521 42.224C140.329 42.1813 140.211 42.0533 140.169 41.84C139.934 41.584 139.817 41.4133 139.817 41.328C139.582 40.5173 139.497 39.8133 139.561 39.216V37.584C139.603 37.456 139.625 37.3813 139.625 37.36V37.072C139.753 36.944 139.774 36.8587 139.689 36.816V36.56C139.71 36.5387 139.721 36.464 139.721 36.336C139.742 36.208 139.763 35.984 139.785 35.664C139.827 35.3867 139.753 34.448 139.561 32.848C139.475 32.7627 139.326 32.3253 139.113 31.536C139.113 31.408 139.07 31.2587 138.985 31.088V30.8C138.899 30.544 138.825 30.416 138.761 30.416C138.697 30.3947 138.665 30.3733 138.665 30.352ZM156.021 31.76V31.408C156.021 31.1733 156.01 31.056 155.989 31.056L155.797 30.992C155.647 30.992 155.53 30.9707 155.445 30.928C155.295 30.9707 155.178 31.0347 155.093 31.12C154.815 31.2907 154.623 31.4933 154.517 31.728L153.813 33.136C153.493 33.7973 153.311 34.6507 153.269 35.696C153.823 35.9307 154.229 35.92 154.485 35.664C154.634 35.536 154.762 35.3867 154.869 35.216C154.911 35.0667 154.997 34.928 155.125 34.8C155.253 34.6507 155.381 34.2987 155.509 33.744C155.85 33.2107 156.021 32.5493 156.021 31.76ZM158.869 32.208V32.56C158.826 33.8613 158.442 35.0347 157.717 36.08C157.61 36.2293 157.461 36.4 157.269 36.592L156.565 37.296C156.415 37.4453 156.223 37.584 155.989 37.712L155.285 37.904C155.221 37.8613 155.039 37.8187 154.741 37.776C154.506 37.8613 154.303 37.84 154.133 37.712C154.111 37.712 153.994 37.6693 153.781 37.584C153.589 37.4987 153.343 37.4453 153.045 37.424C153.087 37.7653 153.109 38.1387 153.109 38.544L153.493 40.016C153.727 40.464 153.951 40.752 154.165 40.88C154.399 40.9867 154.645 41.0507 154.901 41.072C155.178 41.072 155.381 41.04 155.509 40.976C155.658 40.912 155.903 40.816 156.245 40.688L156.885 40.368C157.333 40.112 157.717 40.176 158.037 40.56C158.207 40.752 158.282 41.008 158.261 41.328C158.239 41.6267 158.111 41.904 157.877 42.16C157.749 42.4587 157.418 42.736 156.885 42.992C156.863 42.992 156.767 43.0347 156.597 43.12C155.637 43.5893 154.57 43.6533 153.397 43.312L152.789 43.024C152.725 43.024 152.661 42.992 152.597 42.928C152.341 42.864 152.063 42.704 151.765 42.448C151.466 42.192 151.253 41.9787 151.125 41.808C151.018 41.6373 150.943 41.52 150.901 41.456C150.858 41.392 150.783 41.2533 150.677 41.04C150.314 40.3573 150.047 39.7067 149.877 39.088L149.685 38.16C149.727 38.0747 149.738 37.8293 149.717 37.424V36.912C149.525 36.5707 149.642 35.792 150.069 34.576C150.41 32.9547 150.687 32.0053 150.901 31.728L151.317 30.896C151.317 30.8747 151.445 30.7147 151.701 30.416C151.743 30.3093 151.989 30.096 152.437 29.776C152.522 29.648 152.65 29.5733 152.821 29.552C152.906 29.4667 153.045 29.392 153.237 29.328C153.407 29.1787 153.663 29.0827 154.005 29.04C154.325 28.9333 154.815 28.9013 155.477 28.944C156.991 29.072 158.026 29.712 158.581 30.864L158.805 31.568C158.805 31.6747 158.837 31.8027 158.901 31.952C158.879 31.9947 158.869 32.08 158.869 32.208Z" fill="white"/>
</g>
<defs>
<filter id="filter0_dd_2_110" x="-4" y="0" width="179" height="65" filterUnits="userSpaceOnUse" color-interpolation-filters="sRGB">
<feFlood flood-opacity="0" result="BackgroundImageFix"/>
<feColorMatrix in="SourceAlpha" type="matrix" values="0 0 0 0 0 0 0 0 0 0 0 0 0 0 0 0 0 0 127 0" result="hardAlpha"/>
<feOffset dy="4"/>
<feGaussianBlur stdDeviation="2"/>
<feComposite in2="hardAlpha" operator="out"/>
<feColorMatrix type="matrix" values="0 0 0 0 0 0 0 0 0 0 0 0 0 0 0 0 0 0 0.25 0"/>
<feBlend mode="normal" in2="BackgroundImageFix" result="effect1_dropShadow_2_110"/>
<feColorMatrix in="SourceAlpha" type="matrix" values="0 0 0 0 0 0 0 0 0 0 0 0 0 0 0 0 0 0 127 0" result="hardAlpha"/>
<feOffset dy="4"/>
<feGaussianBlur stdDeviation="2"/>
<feComposite in2="hardAlpha" operator="out"/>
<feColorMatrix type="matrix" values="0 0 0 0 0 0 0 0 0 0 0 0 0 0 0 0 0 0 0.25 0"/>
<feBlend mode="normal" in2="effect1_dropShadow_2_110" result="effect2_dropShadow_2_110"/>
<feBlend mode="normal" in="SourceGraphic" in2="effect2_dropShadow_2_110" result="shape"/>
</filter>
<linearGradient id="paint0_linear_2_110" x1="34.3482" y1="46.0022" x2="34.3482" y2="10.9846" gradientUnits="userSpaceOnUse">
<stop stop-color="#3121FF"/>
<stop offset="0.494792" stop-color="#3121FF" stop-opacity="0.4375"/>
<stop offset="1" stop-color="#3121FF" stop-opacity="0"/>
</linearGradient>
</defs>
</svg>
